<?xml version="1.0" encoding="utf-8"?>
<!-- Generator: Adobe Illustrator 23.0.0, SVG Export Plug-In . SVG Version: 6.00 Build 0)  -->
<svg version="1.1" id="Layer_1" xmlns="http://www.w3.org/2000/svg" xmlns:xlink="http://www.w3.org/1999/xlink" x="0px" y="0px"
	 viewBox="0 0 325 155" style="enable-background:new 0 0 325 155;" xml:space="preserve">
<style type="text/css">
	.st0{fill:#FFFFFF;}
	.st1{fill:#2A295F;}
</style>
<g>
	<path class="st0" d="M25.61,155h273.79c14.14,0,25.61-11.46,25.61-25.61V0H0v129.39C0,143.54,11.46,155,25.61,155z"/>
	<g>
		<g>
			<g>
				<path class="st1" d="M156.54,48.22v-0.05c0-4.92,3.76-9.08,9.06-9.08c3.06,0,4.94,0.85,6.75,2.38l-1.96,2.33
					c-1.35-1.15-2.68-1.88-4.92-1.88c-3.24,0-5.69,2.83-5.69,6.2v0.05c0,3.61,2.38,6.27,5.97,6.27c1.66,0,3.16-0.53,4.24-1.33v-3.29
					h-4.49v-2.68h7.48v7.38c-1.73,1.48-4.21,2.73-7.33,2.73C160.15,57.25,156.54,53.34,156.54,48.22z"/>
				<path class="st1" d="M176.73,39.39h7.83c2.21,0,3.94,0.65,5.07,1.76c0.93,0.95,1.46,2.26,1.46,3.79v0.05
					c0,2.88-1.73,4.62-4.19,5.32l4.74,6.65h-3.64l-4.32-6.12h-3.86v6.12h-3.08V39.39z M184.33,48.09c2.21,0,3.61-1.15,3.61-2.94
					v-0.05c0-1.88-1.35-2.91-3.64-2.91h-4.49v5.9H184.33z"/>
				<path class="st1" d="M194.33,49.5V39.39h3.09v9.98c0,3.26,1.68,5.02,4.44,5.02c2.73,0,4.42-1.66,4.42-4.89V39.39h3.08v9.96
					c0,5.24-2.96,7.88-7.55,7.88C197.24,57.22,194.33,54.59,194.33,49.5z"/>
				<path class="st1" d="M213.34,39.39h6.92c4.09,0,6.67,2.33,6.67,5.87v0.05c0,3.94-3.16,6-7.02,6h-3.49v5.64h-3.08V39.39z
					 M220.01,48.52c2.33,0,3.79-1.3,3.79-3.14v-0.05c0-2.06-1.48-3.14-3.79-3.14h-3.59v6.32H220.01z"/>
				<path class="st1" d="M229.06,48.22v-0.05c0-4.94,3.81-9.08,9.21-9.08s9.16,4.09,9.16,9.03v0.05c0,4.94-3.81,9.08-9.21,9.08
					C232.83,57.25,229.06,53.16,229.06,48.22z M244.19,48.22v-0.05c0-3.41-2.48-6.25-5.97-6.25c-3.49,0-5.92,2.78-5.92,6.2v0.05
					c0,3.41,2.48,6.25,5.97,6.25C241.76,54.41,244.19,51.63,244.19,48.22z"/>
				<path class="st1" d="M157.78,61.51h4.61v20.97h-4.61V61.51z"/>
				<path class="st1" d="M167.94,61.51h4.25l9.82,12.91V61.51h4.55v20.97h-3.92l-10.15-13.33v13.33h-4.55V61.51z"/>
				<path class="st1" d="M190.97,72.06V72c0-5.96,4.7-10.84,11.17-10.84s11.11,4.82,11.11,10.78V72c0,5.96-4.7,10.84-11.17,10.84
					S190.97,78.02,190.97,72.06z M208.43,72.06V72c0-3.59-2.64-6.59-6.35-6.59s-6.29,2.94-6.29,6.53V72c0,3.59,2.64,6.59,6.35,6.59
					C205.86,78.59,208.43,75.65,208.43,72.06z"/>
				<path class="st1" d="M214.52,61.51h5.09l5.48,14.77l5.48-14.77h4.97l-8.48,21.12h-4.07L214.52,61.51z"/>
				<path class="st1" d="M243.27,61.36h4.25l8.99,21.12h-4.82l-1.92-4.7h-8.87l-1.92,4.7h-4.7L243.27,61.36z M248.13,73.71
					l-2.79-6.8l-2.79,6.8H248.13z"/>
				<path class="st1" d="M260.05,61.51h9.58c2.67,0,4.73,0.75,6.11,2.13c1.17,1.17,1.8,2.82,1.8,4.79v0.06
					c0,3.38-1.83,5.51-4.49,6.5l5.12,7.49h-5.39l-4.49-6.71h-3.62v6.71h-4.61V61.51z M269.33,71.7c2.25,0,3.53-1.2,3.53-2.97v-0.06
					c0-1.98-1.38-3-3.62-3h-4.58v6.02H269.33z"/>
				<path class="st1" d="M158.4,88.83h-2.76v-0.86h6.47v0.86h-2.76v7.38h-0.94V88.83z"/>
				<path class="st1" d="M166.2,87.97h5.95v0.85h-5.02v2.81h4.49v0.85h-4.49v2.88h5.08v0.85h-6.01V87.97z"/>
				<path class="st1" d="M176.43,87.97h3.54c1.01,0,1.82,0.31,2.34,0.82c0.4,0.4,0.64,0.98,0.64,1.62v0.02
					c0,1.36-0.94,2.16-2.24,2.4l2.53,3.37h-1.14l-2.39-3.2h-2.35v3.2h-0.93V87.97z M179.88,92.17c1.24,0,2.12-0.64,2.12-1.69v-0.02
					c0-1.01-0.78-1.62-2.11-1.62h-2.54v3.34H179.88z"/>
				<path class="st1" d="M186.92,92.11v-0.02c0-2.33,1.74-4.26,4.17-4.26c1.49,0,2.39,0.53,3.21,1.31l-0.64,0.68
					c-0.69-0.66-1.47-1.13-2.59-1.13c-1.82,0-3.19,1.48-3.19,3.38v0.02c0,1.91,1.38,3.4,3.19,3.4c1.13,0,1.87-0.44,2.66-1.19
					l0.61,0.6c-0.86,0.87-1.8,1.45-3.29,1.45C188.67,96.34,186.92,94.47,186.92,92.11z"/>
				<path class="st1" d="M198.31,87.97h5.95v0.85h-5.02v2.81h4.49v0.85h-4.49v2.88h5.08v0.85h-6.01V87.97z"/>
				<path class="st1" d="M208.63,87.97h0.93v8.24h-0.93V87.97z"/>
				<path class="st1" d="M214.32,87.97h3.54c1.01,0,1.82,0.31,2.34,0.82c0.4,0.4,0.64,0.98,0.64,1.62v0.02
					c0,1.36-0.94,2.16-2.24,2.4l2.53,3.37h-1.14L217.6,93h-2.35v3.2h-0.93V87.97z M217.78,92.17c1.24,0,2.12-0.64,2.12-1.69v-0.02
					c0-1.01-0.78-1.62-2.11-1.62h-2.54v3.34H217.78z"/>
				<path class="st1" d="M225.25,87.97h0.93v8.24h-0.93V87.97z"/>
				<path class="st1" d="M230.57,95.58l5.33-6.78h-5.15v-0.83h6.42v0.62l-5.34,6.78h5.34v0.84h-6.6V95.58z"/>
				<path class="st1" d="M244.5,87.91h0.87l3.75,8.29h-1l-0.96-2.18h-4.48l-0.98,2.18h-0.95L244.5,87.91z M246.79,93.19l-1.87-4.2
					l-1.88,4.2H246.79z"/>
				<path class="st1" d="M254.9,97.63l0.91-1.32c-2.08-0.27-3.56-2.02-3.56-4.2v-0.02c0-2.33,1.74-4.26,4.17-4.26
					c1.49,0,2.39,0.53,3.21,1.31l-0.64,0.68c-0.69-0.66-1.47-1.13-2.59-1.13c-1.82,0-3.19,1.48-3.19,3.38v0.02
					c0,1.91,1.38,3.4,3.19,3.4c1.13,0,1.87-0.44,2.66-1.19l0.61,0.6c-0.82,0.83-1.72,1.39-3.11,1.43l-0.78,1.69L254.9,97.63z"/>
				<path class="st1" d="M266.69,87.91h0.87l3.75,8.29h-1l-0.96-2.18h-4.48l-0.98,2.18h-0.95L266.69,87.91z M265.22,87.06
					c0.24-0.81,0.55-1.2,1.11-1.2c0.52,0,1.19,0.46,1.58,0.46c0.31,0,0.43-0.16,0.61-0.55l0.58,0.17c-0.24,0.81-0.55,1.19-1.11,1.19
					c-0.52,0-1.19-0.46-1.58-0.46c-0.31,0-0.44,0.16-0.61,0.56L265.22,87.06z M268.98,93.19l-1.87-4.2l-1.88,4.2H268.98z"/>
				<path class="st1" d="M274.43,92.11v-0.02c0-2.27,1.71-4.26,4.21-4.26s4.19,1.96,4.19,4.24v0.02c0,2.27-1.71,4.26-4.21,4.26
					S274.43,94.38,274.43,92.11z M281.87,92.11v-0.02c0-1.87-1.37-3.4-3.25-3.4c-1.88,0-3.22,1.51-3.22,3.38v0.02
					c0,1.87,1.36,3.4,3.25,3.4C280.53,95.48,281.87,93.98,281.87,92.11z"/>
				<path class="st1" d="M156.22,101.69h2.86c2.59,0,4.38,1.78,4.38,4.09v0.02c0,2.32-1.79,4.12-4.38,4.12h-2.86V101.69z
					 M159.08,109.06c2.08,0,3.41-1.41,3.41-3.24v-0.02c0-1.82-1.33-3.26-3.41-3.26h-1.93v6.52H159.08z"/>
				<path class="st1" d="M170.12,101.69h5.95v0.85h-5.02v2.81h4.49v0.85h-4.49v2.88h5.08v0.85h-6.01V101.69z"/>
				<path class="st1" d="M190.4,108.72l0.58-0.68c0.86,0.78,1.68,1.16,2.82,1.16c1.11,0,1.83-0.59,1.83-1.4v-0.02
					c0-0.76-0.41-1.2-2.14-1.57c-1.89-0.41-2.76-1.02-2.76-2.38v-0.02c0-1.29,1.14-2.25,2.71-2.25c1.2,0,2.06,0.34,2.89,1.01
					l-0.54,0.72c-0.76-0.62-1.53-0.89-2.38-0.89c-1.07,0-1.75,0.59-1.75,1.33v0.02c0,0.78,0.42,1.21,2.24,1.6
					c1.84,0.4,2.68,1.07,2.68,2.33v0.02c0,1.41-1.18,2.33-2.81,2.33C192.46,110.04,191.38,109.6,190.4,108.72z"/>
				<path class="st1" d="M203.17,101.69h5.95v0.85h-5.02v2.81h4.49v0.85h-4.49v2.88h5.08v0.85h-6.01V101.69z"/>
				<path class="st1" d="M215.75,101.69h3.54c1.01,0,1.82,0.31,2.34,0.82c0.4,0.4,0.64,0.98,0.64,1.62v0.02
					c0,1.37-0.94,2.17-2.24,2.4l2.53,3.36h-1.14l-2.39-3.2h-2.35v3.2h-0.93V101.69z M219.21,105.89c1.24,0,2.12-0.63,2.12-1.69
					v-0.02c0-1.01-0.78-1.62-2.11-1.62h-2.54v3.34H219.21z"/>
				<path class="st1" d="M228.02,101.69h1.04l2.93,7.09l2.94-7.09h1l-3.54,8.29h-0.82L228.02,101.69z"/>
				<path class="st1" d="M242.33,101.69h0.93v8.24h-0.93V101.69z"/>
				<path class="st1" d="M252.67,111.35l0.91-1.32c-2.08-0.27-3.56-2.02-3.56-4.2v-0.02c0-2.33,1.74-4.26,4.17-4.26
					c1.49,0,2.39,0.53,3.21,1.31l-0.64,0.68c-0.69-0.66-1.47-1.13-2.59-1.13c-1.82,0-3.19,1.48-3.19,3.38v0.02
					c0,1.91,1.38,3.4,3.19,3.4c1.13,0,1.87-0.43,2.66-1.19l0.61,0.6c-0.82,0.83-1.72,1.39-3.11,1.44l-0.78,1.69L252.67,111.35z"/>
				<path class="st1" d="M263.16,105.83v-0.02c0-2.27,1.71-4.26,4.21-4.26s4.19,1.96,4.19,4.24v0.02c0,2.27-1.71,4.26-4.21,4.26
					S263.16,108.1,263.16,105.83z M270.59,105.83v-0.02c0-1.87-1.37-3.4-3.25-3.4c-1.88,0-3.22,1.51-3.22,3.38v0.02
					c0,1.87,1.36,3.4,3.25,3.4C269.25,109.2,270.59,107.7,270.59,105.83z"/>
				<path class="st1" d="M277.62,108.72l0.58-0.68c0.86,0.78,1.68,1.16,2.82,1.16c1.11,0,1.83-0.59,1.83-1.4v-0.02
					c0-0.76-0.41-1.2-2.14-1.57c-1.89-0.41-2.76-1.02-2.76-2.38v-0.02c0-1.29,1.14-2.25,2.71-2.25c1.2,0,2.06,0.34,2.89,1.01
					l-0.54,0.72c-0.76-0.62-1.53-0.89-2.38-0.89c-1.07,0-1.75,0.59-1.75,1.33v0.02c0,0.78,0.42,1.21,2.23,1.6
					c1.84,0.4,2.68,1.07,2.68,2.33v0.02c0,1.41-1.18,2.33-2.81,2.33C279.68,110.04,278.61,109.6,277.62,108.72z"/>
			</g>
			<g>
				<path class="st1" d="M75.64,93.29c-0.55,0-0.99,0.51-0.99,1.13v0c0,0.62,0.44,1.13,0.99,1.13h4.09v-2.26H75.64z"/>
				<path class="st1" d="M85.01,94.42L85.01,94.42c0-0.62-0.44-1.13-0.99-1.13h-4.28v2.26h4.28C84.56,95.55,85.01,95.05,85.01,94.42
					z"/>
				<path class="st1" d="M78,96.85c-0.61,0.03-1.22,0.07-1.83,0.15c0,0.06,0,0.13,0.01,0.19c0.02,0.21,0.08,0.41,0.18,0.6
					c0.55,1.11,1.09,1.73,1.64,2.18c0.58,0.47,1.16,0.68,1.73,0.71v-3.49v-0.39C79.15,96.82,78.57,96.82,78,96.85z"/>
				<path class="st1" d="M82.57,96.9l-0.92-0.05c-0.61-0.03-1.22-0.03-1.83-0.04c-0.03,0-0.06,0-0.1,0v0.39v3.49
					c0.03,0,0.06,0,0.1,0.01c0.61,0,1.22-0.21,1.83-0.71c0.55-0.46,1.1-1.08,1.64-2.19c0.09-0.19,0.15-0.39,0.18-0.6
					c0.01-0.06,0.01-0.13,0.01-0.19v0C83.18,96.95,82.88,96.94,82.57,96.9z"/>
				<path class="st1" d="M74.19,89.5c-0.54,0-0.98,0.59-0.98,1.32v0c0,0.73,0.44,1.32,0.98,1.32h5.51V89.5H74.19z"/>
				<path class="st1" d="M86.38,90.81L86.38,90.81c0-0.73-0.44-1.32-0.98-1.32h-5.7v2.64h5.7C85.94,92.13,86.38,91.54,86.38,90.81z"
					/>
			</g>
			<path class="st1" d="M86.8,71.41c-0.02-0.06-0.05-0.13-0.07-0.19c-0.25-0.6-0.71-1.12-1.29-1.49c-0.42-0.26-0.91-0.37-1.34-0.48
				c-0.27-0.06-0.55-0.13-0.77-0.22c-0.04-0.02-0.08-0.04-0.13-0.06c0.05-0.05,0.1-0.1,0.15-0.14c0.58-0.54,2.12-1.99,0.94-3.68
				c-0.6-0.86-1.52-1.22-2.45-0.96c-1.07,0.31-1.85,1.4-1.79,2.53c0.04,0.88,0.45,1.66,1.22,2.31c-0.18,0.1-0.36,0.18-0.54,0.25
				c-0.12,0.05-0.25,0.09-0.37,0.14c-0.09,0.03-0.19,0.08-0.29,0.12v0l-0.18,0.08c-0.07,0.03-0.13,0.05-0.19,0.08
				c-0.37-0.19-0.75-0.3-1.11-0.42c-0.18-0.06-0.36-0.11-0.5-0.16c-0.05-0.03-0.1-0.05-0.15-0.08c0.77-0.65,1.18-1.43,1.22-2.31
				c0.05-1.13-0.72-2.22-1.79-2.53c-0.92-0.27-1.84,0.09-2.44,0.95c-1.18,1.69,0.36,3.14,0.94,3.69c0.05,0.05,0.1,0.1,0.16,0.14
				c-0.04,0.02-0.08,0.04-0.13,0.06c-0.22,0.09-0.49,0.16-0.78,0.22c-0.43,0.1-0.92,0.21-1.34,0.47c-0.58,0.36-1.04,0.89-1.29,1.49
				l-0.02,0.04c-0.13,0.32-0.2,0.66-0.22,1.02c-0.02,0.33-0.02,0.7,0.12,1.03l0.16,0.35c0.09,0.21,0.18,0.42,0.27,0.63
				c0.12,0.29,0.24,0.58,0.36,0.88c0.14,0.36,0.28,0.72,0.42,1.08c0.16,0.42,0.31,0.84,0.46,1.26c0.16,0.46,0.32,0.93,0.47,1.39
				c0.16,0.49,0.31,0.99,0.46,1.49c0.15,0.52,0.29,1.03,0.42,1.55c0.14,0.55,0.25,1.07,0.35,1.58c0.11,0.53,0.19,1.06,0.26,1.57
				c0.07,0.52,0.12,1.03,0.15,1.51l0.02,0.34l0.37-0.02l0.3-0.02c0.05-0.01,0.1-0.01,0.19-0.03l0.32-0.05l-0.02-0.3
				c-0.03-0.49-0.08-1-0.15-1.55c-0.07-0.51-0.16-1.06-0.27-1.61v0c-0.1-0.51-0.22-1.06-0.36-1.61c-0.13-0.53-0.27-1.05-0.43-1.58
				c-0.15-0.51-0.3-1.01-0.47-1.51c-0.15-0.47-0.31-0.94-0.48-1.41c-0.15-0.42-0.31-0.85-0.47-1.27c-0.14-0.37-0.28-0.73-0.43-1.1
				c-0.12-0.3-0.24-0.59-0.37-0.89c-0.09-0.22-0.18-0.43-0.28-0.64c-0.05-0.12-0.11-0.24-0.16-0.37c-0.08-0.18-0.08-0.45-0.06-0.67
				c0.02-0.26,0.07-0.5,0.17-0.73c0.17-0.4,0.48-0.75,0.87-1c0.25-0.16,0.6-0.24,0.98-0.32c0.31-0.07,0.66-0.15,0.98-0.29
				c0.2-0.09,0.4-0.18,0.58-0.28c0.13,0.08,0.26,0.16,0.38,0.23c0,0,0.18,0.1,0.24,0.12c0.17,0.08,0.46,0.16,0.54,0.18l0.12,0.04
				c0.17,0.05,0.33,0.1,0.49,0.16c-0.31,0.37-0.55,0.8-0.69,1.24c-0.21,0.64-0.15,1.29,0.15,1.76c0.26,0.4,0.69,0.68,1.24,0.79
				c0.1,0.02,0.2,0.02,0.3,0.03l0.03,0l0.09,0c0.09,0,0.17-0.01,0.25-0.02c0.01,0,0.02,0,0.03,0c0.55-0.11,0.98-0.38,1.24-0.79
				c0.2-0.31,0.29-0.69,0.27-1.07c0.01-0.37-0.08-0.75-0.26-1.07c-0.17-0.32-0.38-0.59-0.66-0.85c0.02-0.01,0.04-0.01,0.05-0.02
				c0.14-0.05,0.28-0.1,0.41-0.15c0.36-0.14,0.72-0.32,1.07-0.55c0.18,0.1,0.37,0.19,0.58,0.28c0.3,0.13,0.62,0.21,0.98,0.29
				c0.35,0.08,0.72,0.16,0.97,0.32c0.4,0.25,0.71,0.61,0.87,1c0.09,0.22,0.15,0.47,0.17,0.73c0.01,0.21,0.02,0.48-0.06,0.67
				l-0.41,0.98c-0.12,0.29-0.24,0.59-0.35,0.88c-0.14,0.36-0.28,0.73-0.41,1.09c-0.16,0.42-0.31,0.85-0.45,1.27
				c-0.16,0.47-0.32,0.94-0.47,1.41c-0.16,0.5-0.31,1.01-0.45,1.52c-0.15,0.52-0.29,1.05-0.42,1.59c-0.14,0.59-0.26,1.12-0.35,1.62
				c-0.12,0.62-0.2,1.13-0.26,1.62c-0.07,0.51-0.12,1.03-0.15,1.55l0,0.37l0.79,0.04l0.37-0.01l0.02-0.34
				c0.03-0.48,0.08-0.97,0.15-1.51c0.07-0.51,0.15-1.04,0.26-1.59c0.1-0.5,0.21-1.03,0.35-1.6c0.13-0.53,0.26-1.05,0.41-1.57
				c0.14-0.5,0.29-1,0.45-1.51c0.15-0.47,0.3-0.93,0.46-1.4c0.14-0.42,0.29-0.84,0.44-1.26c0.13-0.36,0.27-0.72,0.41-1.08
				c0.11-0.29,0.22-0.57,0.34-0.86c0.08-0.2,0.16-0.41,0.24-0.6l0.08-0.19C87.05,72.86,87.05,72.13,86.8,71.41z M77.01,68.41
				c-0.11-0.09-0.22-0.19-0.33-0.29c-1.06-1-1.29-1.69-0.8-2.4c0.22-0.31,0.63-0.67,1.15-0.52c0.59,0.17,1.03,0.83,1,1.5
				C78,67.34,77.65,67.92,77.01,68.41z M80.24,72.99c-0.15,0.14-0.3,0.21-0.44,0.22l-0.04,0c-0.19-0.01-0.36-0.14-0.44-0.21
				c-0.22-0.2-0.27-0.48-0.27-0.65c0.01-0.13,0.03-0.25,0.07-0.38c0.11-0.35,0.31-0.69,0.58-0.99c0-0.01,0.01-0.01,0.01-0.01
				c0.35,0.26,0.59,0.58,0.72,1c0.04,0.12,0.06,0.25,0.07,0.34C80.5,72.51,80.45,72.79,80.24,72.99z M82.54,68.12
				c-0.1,0.1-0.21,0.2-0.33,0.29c-0.65-0.49-0.99-1.07-1.02-1.72c-0.03-0.67,0.41-1.33,1-1.5c0.09-0.03,0.18-0.04,0.26-0.04
				c0.4,0,0.7,0.31,0.88,0.56C83.84,66.44,83.62,67.11,82.54,68.12z"/>
			<path class="st1" d="M79.73,45.18c-1.71,0.01-3.45,0.27-5.18,0.79c-5.84,1.77-9.66,5.95-10.71,11.24
				c-0.55,2.35-0.55,4.93,0.08,7.62c0.44,1.86,0.94,3.71,1.49,5.55c0.58,1.93,1.22,3.85,1.9,5.76c0.69,1.91,1.43,3.81,2.21,5.7
				c0.39,0.95,0.79,1.9,1.2,2.84c0.21,0.47,0.41,0.95,0.62,1.42c0.22,0.5,0.43,1.04,0.78,1.49c0.14,0.18,0.28,0.36,0.42,0.54
				l0.01,0.01c0.4,0.52,1.06,0.83,1.76,0.83h5.31h5.57c0.69,0,1.34-0.3,1.74-0.81c0.14-0.17,0.28-0.35,0.42-0.52
				c0.16-0.2,0.25-0.46,0.37-0.68c0.16-0.28,0.27-0.6,0.39-0.89c0.26-0.66,0.52-1.31,0.78-1.96c0.52-1.3,1.04-2.6,1.53-3.91
				c0.16-0.43,0.32-0.86,0.48-1.29c1.05-2.85,2.09-5.72,2.93-8.62c0.59-2.06,1.24-4.14,1.69-6.23c0.27-1.19,0.48-2.38,0.58-3.57
				C96.83,51.85,88.83,45.11,79.73,45.18z M93.62,63.61c-0.18,0.82-0.39,1.64-0.64,2.43c-1.93,6.19-4.19,12.31-6.43,18.42
				c-0.36,0.99-0.6,1.57-0.96,1.89l-0.03,0.03c-0.02,0.01-0.04,0.03-0.06,0.04c-0.02,0.02-0.05,0.03-0.07,0.05
				c-0.02,0.01-0.03,0.02-0.05,0.03c-0.03,0.02-0.06,0.03-0.09,0.04c-0.24,0.11-0.54,0.15-0.95,0.14c-0.06,0-0.13,0-0.2-0.01
				c-0.21-0.01-0.43-0.03-0.69-0.05c-0.08-0.01-0.16-0.02-0.24-0.02c-0.05,0-0.1-0.01-0.15-0.02c-0.07-0.01-0.14-0.02-0.21-0.02
				c0,0.01,0,0.02,0,0.03l-0.44-0.02c0-0.02,0-0.04,0-0.06c-0.2-0.02-1.11-0.13-2.23-0.16l-0.46-0.01l-0.23,0
				c-0.75,0-1.54,0.04-2.25,0.15l-0.08-0.03c-0.04,0.03-0.08,0.06-0.14,0.06c-0.03,0.01-0.06,0.01-0.09,0.02c0,0.01,0,0.02,0,0.02
				l-0.22,0.01c-0.09,0.02-0.17,0.03-0.25,0.04c-0.17,0.03-0.33,0.05-0.47,0.07c-0.06,0.01-0.13,0.02-0.19,0.02
				c-0.04,0-0.08,0.01-0.12,0.01c-0.04,0-0.07,0.01-0.11,0.01c-0.1,0.01-0.19,0.02-0.28,0.02c-0.03,0-0.06,0-0.09,0
				c-0.57,0.02-0.92-0.09-1.22-0.41c-0.04-0.04-0.07-0.08-0.11-0.13c-0.27-0.34-0.51-0.88-0.86-1.66
				c-3.21-7.32-6.04-14.75-7.51-22.55c-0.27-1.42-0.25-2.85,0.01-4.22c1.2-5.07,5.74-9.35,11.52-10.17
				c0.87-0.12,1.72-0.18,2.56-0.18c7.37,0,13.58,4.54,14.29,11.18C94.08,60.26,93.94,61.95,93.62,63.61z"/>
			<path class="st1" d="M51.17,116.66c0.45-0.05,0.89-0.11,1.34-0.17l0.72-0.09c0.24-0.03,0.47-0.06,0.71-0.09
				c0.52-0.08,1.04-0.17,1.56-0.26l0.62-0.11c0.19-0.03,0.38-0.06,0.56-0.1c0.91-0.17,1.81-0.36,2.71-0.57
				c4.08-0.94,8.09-2.26,11.92-3.92l0.19-0.09c0.98-0.43,1.95-0.87,2.86-1.32c0.19-0.09,0.38-0.19,0.56-0.29l0.19-0.1
				c-19.38-12.63-31.8-33.47-33.67-56.5l-0.07,0.04l-0.15-3.78c-0.03-0.81-0.04-1.62-0.04-2.43c0-3.87,0.3-7.74,0.88-11.53
				c0.2-1.27,0.43-2.53,0.68-3.74c0.33-1.62,0.73-3.25,1.17-4.82c0.24-0.85,0.49-1.7,0.76-2.54l0.27-0.82
				c0.19-0.57,0.38-1.15,0.59-1.71c0.11-0.31,0.22-0.62,0.34-0.93c0.04-0.11,0.08-0.21,0.12-0.32c-5.14,1.58-10.31,3.53-15.4,5.84
				c-2.36,1.07-3.05,1.89-3.06,3.67C27.29,48.12,28,69.41,35.2,89.77c1.96,5.55,4.37,10.91,7.17,15.93c1.28,2.31,2.59,4.5,3.88,6.51
				c1.03,1.61,2.08,3.16,3.14,4.61c0.17-0.02,0.35-0.03,0.52-0.05l0.48-0.04C50.65,116.71,50.91,116.69,51.17,116.66z"/>
			<path class="st1" d="M73.15,115.57c-0.74,0.32-1.5,0.62-2.26,0.92c-3.4,1.34-6.9,2.44-10.46,3.26c-0.91,0.21-1.83,0.4-2.76,0.58
				c-0.2,0.04-0.39,0.07-0.59,0.11l-0.33,0.06c-0.62,0.11-1.25,0.22-1.88,0.32c-0.3,0.05-0.61,0.09-0.91,0.13l-0.17,0.02
				c-0.36,0.05-0.71,0.1-1.07,0.14c8.21,9.79,17.03,14.75,26.22,14.75h0.1c11.76-0.04,22.46-7.78,32.71-23.65
				c1.33-2.05,2.67-4.28,3.99-6.63c2.69-4.79,5.03-9.95,6.95-15.33c3.03-8.49,5.11-17.71,6.36-28.16c-0.07-0.07-0.15-0.14-0.22-0.22
				l-0.2-0.19c-0.15-0.15-0.3-0.29-0.45-0.44c-0.26-0.25-0.52-0.49-0.78-0.73l-0.76-0.7c-0.34-0.3-0.68-0.6-1.03-0.9l-0.56-0.49
				c-0.54-0.45-1.08-0.9-1.63-1.34c-0.79-0.63-1.58-1.23-2.33-1.78l-0.37-0.27c-0.47-0.34-0.95-0.68-1.42-1
				c-0.4-0.28-0.83-0.56-1.28-0.85c-1.92,23.02-14.38,43.83-33.79,56.44l0.08,0.05l0,0l0.02,0.01l-3.44,1.99
				c-0.38,0.22-0.77,0.44-1.15,0.65C77.59,113.52,75.37,114.61,73.15,115.57L73.15,115.57z"/>
			<path class="st1" d="M50.92,20.52c-0.17,0.43-0.34,0.86-0.5,1.29l-0.23,0.59c-0.07,0.19-0.15,0.39-0.22,0.58
				c-0.2,0.54-0.38,1.08-0.56,1.63l-0.15,0.43c-0.05,0.15-0.1,0.3-0.15,0.45c-0.27,0.84-0.52,1.69-0.76,2.54
				c-0.41,1.48-0.78,3-1.1,4.53c-0.24,1.13-0.45,2.31-0.64,3.51c-0.47,3.05-0.75,6.17-0.81,9.3c10.45-5.32,22.13-8.13,33.93-8.13
				c11.82,0,23.54,2.82,34.03,8.19l0-0.12l3.32,1.91c0.01,0.01,0.03,0.02,0.04,0.02l0,0c1.62,0.94,3.22,1.95,4.76,3
				c0.51,0.35,1.01,0.71,1.52,1.07l0.37,0.27c0.82,0.6,1.66,1.24,2.51,1.91c0.75,0.6,1.54,1.26,2.47,2.07l0.54,0.47
				c0.12,0.1,0.23,0.21,0.35,0.31c0.28-3.17,0.49-6.46,0.65-9.98c0-1.31-0.02-2.72-0.03-4.13c-0.04-3.47-0.07-7.05,0.11-10.58
				c0.14-3.04-0.66-4.5-3.07-5.55c-25.36-11.08-50.83-13.5-75.71-7.18c-0.07,0.16-0.14,0.32-0.21,0.48l-0.06,0.13h0l-0.15,0.36
				C51.1,20.09,51.01,20.31,50.92,20.52z"/>
		</g>
	</g>
</g>
</svg>
