<?xml version="1.0" encoding="utf-8"?>
<!-- Generator: Adobe Illustrator 23.0.0, SVG Export Plug-In . SVG Version: 6.00 Build 0)  -->
<svg version="1.1" id="Layer_1" xmlns="http://www.w3.org/2000/svg" xmlns:xlink="http://www.w3.org/1999/xlink" x="0px" y="0px"
	 viewBox="0 0 187.85 106.49" style="enable-background:new 0 0 187.85 106.49;" xml:space="preserve">
<style type="text/css">
	.st0{fill:#FFFFFF;}
</style>
<g>
	<g>
		<path class="st0" d="M1.32,13.38v-0.07C1.32,6.1,6.84,0,14.59,0c4.48,0,7.24,1.25,9.89,3.49l-2.87,3.42
			c-1.98-1.69-3.93-2.76-7.2-2.76c-4.74,0-8.34,4.15-8.34,9.08v0.07c0,5.29,3.49,9.19,8.75,9.19c2.43,0,4.63-0.77,6.21-1.95v-4.82
			h-6.58V11.8H25.4v10.81c-2.54,2.17-6.18,4.01-10.73,4.01C6.62,26.61,1.32,20.88,1.32,13.38z"/>
		<path class="st0" d="M30.91,0.44h11.47c3.23,0,5.77,0.96,7.43,2.57c1.36,1.4,2.13,3.31,2.13,5.55v0.07c0,4.23-2.54,6.76-6.14,7.79
			l6.95,9.74h-5.33L41.1,17.2h-5.66v8.97h-4.52V0.44z M42.05,13.2c3.23,0,5.29-1.69,5.29-4.3V8.82c0-2.76-1.98-4.26-5.33-4.26h-6.58
			v8.64H42.05z"/>
		<path class="st0" d="M56.72,15.25V0.44h4.52v14.63c0,4.78,2.46,7.35,6.51,7.35c4.01,0,6.47-2.43,6.47-7.17V0.44h4.52v14.59
			c0,7.68-4.34,11.54-11.06,11.54C60.98,26.58,56.72,22.72,56.72,15.25z"/>
		<path class="st0" d="M84.58,0.44h10.15c5.99,0,9.78,3.42,9.78,8.6v0.07c0,5.77-4.63,8.79-10.29,8.79H89.1v8.27h-4.52V0.44z
			 M94.36,13.82c3.42,0,5.55-1.91,5.55-4.59V9.15c0-3.01-2.17-4.59-5.55-4.59H89.1v9.26H94.36z"/>
		<path class="st0" d="M107.63,13.38v-0.07c0-7.24,5.59-13.31,13.49-13.31c7.9,0,13.42,5.99,13.42,13.23v0.07
			c0,7.24-5.59,13.31-13.49,13.31C113.14,26.61,107.63,20.62,107.63,13.38z M129.79,13.38v-0.07c0-5-3.64-9.15-8.75-9.15
			s-8.67,4.08-8.67,9.08v0.07c0,5,3.64,9.15,8.75,9.15S129.79,18.38,129.79,13.38z"/>
		<path class="st0" d="M3.15,32.87h6.76V63.6H3.15V32.87z"/>
		<path class="st0" d="M18.03,32.87h6.23l14.4,18.92V32.87h6.67V63.6h-5.75L24.71,44.06V63.6h-6.67V32.87z"/>
		<path class="st0" d="M51.8,48.32v-0.09c0-8.74,6.89-15.89,16.37-15.89s16.29,7.07,16.29,15.8v0.09c0,8.74-6.89,15.89-16.37,15.89
			C58.6,64.12,51.8,57.06,51.8,48.32z M77.39,48.32v-0.09c0-5.27-3.86-9.66-9.31-9.66c-5.44,0-9.22,4.3-9.22,9.57v0.09
			c0,5.27,3.86,9.66,9.31,9.66S77.39,53.59,77.39,48.32z"/>
		<path class="st0" d="M86.31,32.87h7.46l8.03,21.64l8.03-21.64h7.29L104.7,63.82h-5.97L86.31,32.87z"/>
		<path class="st0" d="M128.45,32.65h6.23l13.17,30.95h-7.07l-2.81-6.89h-12.99l-2.81,6.89h-6.89L128.45,32.65z M135.56,50.73
			l-4.08-9.97l-4.08,9.97H135.56z"/>
		<path class="st0" d="M153.04,32.87h14.05c3.91,0,6.94,1.1,8.96,3.12c1.71,1.71,2.63,4.13,2.63,7.02v0.09
			c0,4.96-2.68,8.08-6.58,9.53l7.51,10.97h-7.9l-6.58-9.83h-5.31v9.83h-6.76V32.87z M166.65,47.79c3.29,0,5.18-1.76,5.18-4.35v-0.09
			c0-2.9-2.02-4.39-5.31-4.39h-6.72v8.82H166.65z"/>
		<path class="st0" d="M4.05,72.9H0v-1.26h9.48v1.26H5.43v10.81H4.05V72.9z"/>
		<path class="st0" d="M15.48,71.64h8.72v1.24h-7.36V77h6.59v1.24h-6.59v4.22h7.45v1.24h-8.81V71.64z"/>
		<path class="st0" d="M30.48,71.64h5.19c1.48,0,2.67,0.45,3.43,1.21c0.59,0.59,0.93,1.43,0.93,2.38v0.03c0,2-1.38,3.17-3.28,3.52
			l3.71,4.93h-1.67l-3.5-4.69h-3.45v4.69h-1.36V71.64z M35.55,77.79c1.81,0,3.1-0.93,3.1-2.48v-0.03c0-1.48-1.14-2.38-3.09-2.38
			h-3.72v4.9H35.55z"/>
		<path class="st0" d="M45.85,77.71v-0.04c0-3.41,2.55-6.24,6.1-6.24c2.19,0,3.5,0.78,4.71,1.91l-0.93,1
			c-1.02-0.97-2.16-1.66-3.79-1.66c-2.67,0-4.67,2.17-4.67,4.95v0.03c0,2.79,2.02,4.98,4.67,4.98c1.66,0,2.74-0.64,3.9-1.74
			l0.9,0.88c-1.26,1.28-2.64,2.12-4.83,2.12C48.42,83.91,45.85,81.17,45.85,77.71z"/>
		<path class="st0" d="M62.55,71.64h8.72v1.24h-7.36V77h6.59v1.24h-6.59v4.22h7.45v1.24h-8.81V71.64z"/>
		<path class="st0" d="M77.67,71.64h1.36v12.07h-1.36V71.64z"/>
		<path class="st0" d="M86.01,71.64h5.19c1.48,0,2.67,0.45,3.43,1.21c0.59,0.59,0.93,1.43,0.93,2.38v0.03c0,2-1.38,3.17-3.28,3.52
			L96,83.71h-1.67l-3.5-4.69h-3.45v4.69h-1.36V71.64z M91.08,77.79c1.81,0,3.1-0.93,3.1-2.48v-0.03c0-1.48-1.14-2.38-3.09-2.38
			h-3.72v4.9H91.08z"/>
		<path class="st0" d="M102.04,71.64h1.36v12.07h-1.36V71.64z"/>
		<path class="st0" d="M109.83,82.79l7.81-9.93h-7.55v-1.22h9.41v0.91l-7.83,9.93h7.83v1.22h-9.67V82.79z"/>
		<path class="st0" d="M130.24,71.55h1.28l5.5,12.16h-1.47l-1.41-3.19h-6.57l-1.43,3.19h-1.4L130.24,71.55z M133.61,79.29
			l-2.74-6.16l-2.76,6.16H133.61z"/>
		<path class="st0" d="M145.5,85.79l1.33-1.93c-3.05-0.4-5.22-2.97-5.22-6.16v-0.04c0-3.41,2.55-6.24,6.1-6.24
			c2.19,0,3.5,0.78,4.71,1.91l-0.93,1c-1.02-0.97-2.16-1.66-3.79-1.66c-2.67,0-4.67,2.17-4.67,4.95v0.03c0,2.79,2.02,4.98,4.67,4.98
			c1.66,0,2.74-0.64,3.9-1.74l0.9,0.88c-1.21,1.22-2.52,2.04-4.55,2.1l-1.14,2.48L145.5,85.79z"/>
		<path class="st0" d="M162.77,71.55h1.28l5.5,12.16h-1.47l-1.41-3.19h-6.57l-1.43,3.19h-1.4L162.77,71.55z M160.61,70.31
			c0.34-1.19,0.81-1.76,1.62-1.76c0.76,0,1.74,0.67,2.31,0.67c0.45,0,0.64-0.24,0.9-0.81l0.84,0.24c-0.34,1.19-0.81,1.74-1.62,1.74
			c-0.76,0-1.74-0.67-2.31-0.67c-0.45,0-0.64,0.24-0.9,0.83L160.61,70.31z M166.13,79.29l-2.74-6.16l-2.76,6.16H166.13z"/>
		<path class="st0" d="M174.13,77.71v-0.04c0-3.33,2.5-6.24,6.17-6.24s6.14,2.88,6.14,6.21v0.03c0,3.33-2.5,6.24-6.17,6.24
			C176.59,83.91,174.13,81.03,174.13,77.71z M185.03,77.71v-0.04c0-2.74-2-4.98-4.76-4.98s-4.72,2.21-4.72,4.95v0.03
			c0,2.74,2,4.98,4.76,4.98S185.03,80.45,185.03,77.71z"/>
		<path class="st0" d="M0.86,91.75h4.19c3.79,0,6.41,2.6,6.41,6v0.03c0,3.4-2.62,6.04-6.41,6.04H0.86V91.75z M5.05,102.56
			c3.05,0,5-2.07,5-4.74v-0.04c0-2.67-1.95-4.78-5-4.78H2.22v9.55H5.05z"/>
		<path class="st0" d="M21.24,91.75h8.72v1.24H22.6v4.12h6.59v1.24H22.6v4.22h7.45v1.24h-8.81V91.75z"/>
		<path class="st0" d="M50.95,102.06l0.84-1c1.26,1.14,2.47,1.71,4.14,1.71c1.62,0,2.69-0.86,2.69-2.05v-0.03
			c0-1.12-0.6-1.76-3.14-2.29c-2.78-0.6-4.05-1.5-4.05-3.48v-0.04c0-1.9,1.67-3.29,3.97-3.29c1.76,0,3.02,0.5,4.24,1.48l-0.79,1.05
			c-1.12-0.91-2.24-1.31-3.48-1.31c-1.57,0-2.57,0.86-2.57,1.95v0.03c0,1.14,0.62,1.78,3.28,2.34c2.69,0.59,3.93,1.57,3.93,3.41
			v0.04c0,2.07-1.72,3.41-4.12,3.41C53.97,103.99,52.4,103.35,50.95,102.06z"/>
		<path class="st0" d="M69.67,91.75h8.72v1.24h-7.36v4.12h6.59v1.24h-6.59v4.22h7.45v1.24h-8.81V91.75z"/>
		<path class="st0" d="M88.12,91.75h5.19c1.48,0,2.67,0.45,3.43,1.21c0.59,0.59,0.93,1.43,0.93,2.38v0.03c0,2-1.38,3.17-3.28,3.52
			l3.71,4.93h-1.67l-3.5-4.69h-3.45v4.69h-1.36V91.75z M93.19,97.9c1.81,0,3.1-0.93,3.1-2.48v-0.03c0-1.48-1.14-2.38-3.09-2.38
			h-3.72v4.9H93.19z"/>
		<path class="st0" d="M106.09,91.75h1.52l4.29,10.4l4.31-10.4h1.46l-5.19,12.16h-1.21L106.09,91.75z"/>
		<path class="st0" d="M127.07,91.75h1.36v12.07h-1.36V91.75z"/>
		<path class="st0" d="M142.22,105.9l1.33-1.93c-3.05-0.4-5.22-2.97-5.22-6.16v-0.04c0-3.41,2.55-6.24,6.1-6.24
			c2.19,0,3.5,0.78,4.71,1.91l-0.93,1c-1.02-0.97-2.16-1.66-3.79-1.66c-2.67,0-4.67,2.17-4.67,4.95v0.03c0,2.79,2.02,4.98,4.67,4.98
			c1.66,0,2.74-0.64,3.9-1.74l0.9,0.88c-1.21,1.22-2.52,2.04-4.55,2.1l-1.14,2.48L142.22,105.9z"/>
		<path class="st0" d="M157.6,97.82v-0.04c0-3.33,2.5-6.24,6.17-6.24s6.14,2.88,6.14,6.21v0.03c0,3.33-2.5,6.24-6.17,6.24
			C160.06,104.02,157.6,101.14,157.6,97.82z M168.5,97.82v-0.04c0-2.74-2-4.98-4.76-4.98s-4.72,2.21-4.72,4.95v0.03
			c0,2.74,2,4.98,4.76,4.98S168.5,100.56,168.5,97.82z"/>
		<path class="st0" d="M178.8,102.06l0.84-1c1.26,1.14,2.47,1.71,4.14,1.71c1.62,0,2.69-0.86,2.69-2.05v-0.03
			c0-1.12-0.6-1.76-3.14-2.29c-2.78-0.6-4.05-1.5-4.05-3.48v-0.04c0-1.9,1.67-3.29,3.97-3.29c1.76,0,3.02,0.5,4.24,1.48l-0.79,1.05
			c-1.12-0.91-2.24-1.31-3.48-1.31c-1.57,0-2.57,0.86-2.57,1.95v0.03c0,1.14,0.62,1.78,3.28,2.34c2.69,0.59,3.93,1.57,3.93,3.41
			v0.04c0,2.07-1.72,3.41-4.12,3.41C181.82,103.99,180.25,103.35,178.8,102.06z"/>
	</g>
</g>
</svg>
