<?xml version="1.0" encoding="utf-8"?>
<!-- Generator: Adobe Illustrator 23.0.0, SVG Export Plug-In . SVG Version: 6.00 Build 0)  -->
<svg version="1.1" id="Layer_1" xmlns="http://www.w3.org/2000/svg" xmlns:xlink="http://www.w3.org/1999/xlink" x="0px" y="0px"
	 viewBox="0 0 178.27 64.12" style="enable-background:new 0 0 178.27 64.12;" xml:space="preserve">
<style type="text/css">
	.st0{fill:#FFFFFF;}
</style>
<g>
	<g>
		<path class="st0" d="M0,13.38v-0.07C0,6.1,5.51,0,13.27,0c4.48,0,7.24,1.25,9.89,3.49l-2.87,3.42c-1.98-1.69-3.93-2.76-7.2-2.76
			c-4.74,0-8.34,4.15-8.34,9.08v0.07c0,5.29,3.49,9.19,8.75,9.19c2.43,0,4.63-0.77,6.21-1.95v-4.82h-6.58V11.8h10.95v10.81
			c-2.54,2.17-6.17,4.01-10.73,4.01C5.29,26.61,0,20.88,0,13.38z"/>
		<path class="st0" d="M29.59,0.44h11.47c3.24,0,5.77,0.96,7.43,2.57c1.36,1.4,2.13,3.31,2.13,5.55v0.07c0,4.23-2.54,6.76-6.14,7.79
			l6.95,9.74h-5.33l-6.32-8.97h-5.66v8.97h-4.52V0.44z M40.73,13.2c3.23,0,5.29-1.69,5.29-4.3V8.82c0-2.76-1.99-4.26-5.33-4.26
			h-6.58v8.64H40.73z"/>
		<path class="st0" d="M55.39,15.25V0.44h4.52v14.63c0,4.78,2.46,7.35,6.51,7.35c4.01,0,6.47-2.43,6.47-7.17V0.44h4.52v14.59
			c0,7.68-4.34,11.54-11.06,11.54C59.66,26.58,55.39,22.72,55.39,15.25z"/>
		<path class="st0" d="M83.25,0.44H93.4c5.99,0,9.78,3.42,9.78,8.6v0.07c0,5.77-4.63,8.79-10.29,8.79h-5.11v8.27h-4.52V0.44z
			 M93.03,13.82c3.42,0,5.55-1.91,5.55-4.59V9.15c0-3.01-2.17-4.59-5.55-4.59h-5.26v9.26H93.03z"/>
		<path class="st0" d="M106.3,13.38v-0.07C106.3,6.07,111.89,0,119.79,0s13.42,5.99,13.42,13.23v0.07c0,7.24-5.59,13.31-13.49,13.31
			S106.3,20.62,106.3,13.38z M128.47,13.38v-0.07c0-5-3.64-9.15-8.75-9.15s-8.67,4.08-8.67,9.08v0.07c0,5,3.64,9.15,8.75,9.15
			S128.47,18.38,128.47,13.38z"/>
		<path class="st0" d="M1.82,32.87h6.76V63.6H1.82V32.87z"/>
		<path class="st0" d="M16.71,32.87h6.23l14.4,18.92V32.87h6.67V63.6h-5.75L23.38,44.06V63.6h-6.67V32.87z"/>
		<path class="st0" d="M50.47,48.32v-0.09c0-8.74,6.89-15.89,16.38-15.89s16.29,7.07,16.29,15.8v0.09c0,8.74-6.89,15.89-16.37,15.89
			S50.47,57.06,50.47,48.32z M76.07,48.32v-0.09c0-5.27-3.86-9.66-9.31-9.66s-9.22,4.3-9.22,9.57v0.09c0,5.27,3.86,9.66,9.31,9.66
			S76.07,53.59,76.07,48.32z"/>
		<path class="st0" d="M84.98,32.87h7.46l8.03,21.64l8.03-21.64h7.29l-12.42,30.95H97.4L84.98,32.87z"/>
		<path class="st0" d="M127.13,32.65h6.23l13.17,30.95h-7.07l-2.81-6.89h-12.99l-2.81,6.89h-6.89L127.13,32.65z M134.24,50.73
			l-4.08-9.97l-4.08,9.97H134.24z"/>
		<path class="st0" d="M151.71,32.87h14.05c3.91,0,6.94,1.1,8.96,3.12c1.71,1.71,2.63,4.13,2.63,7.02v0.09
			c0,4.96-2.68,8.08-6.58,9.53l7.51,10.97h-7.9l-6.58-9.83h-5.31v9.83h-6.76V32.87z M165.32,47.79c3.29,0,5.18-1.76,5.18-4.35v-0.09
			c0-2.9-2.02-4.39-5.31-4.39h-6.72v8.82H165.32z"/>
	</g>
</g>
</svg>
